<?xml version="1.0" encoding="iso-8859-1"?>
<!-- Generator: Adobe Illustrator 19.0.0, SVG Export Plug-In . SVG Version: 6.00 Build 0)  -->
<svg version="1.1" id="Capa_1" xmlns="http://www.w3.org/2000/svg" xmlns:xlink="http://www.w3.org/1999/xlink" x="0px" y="0px"
	 viewBox="0 0 204.8 204.8" style="enable-background:new 0 0 204.8 204.8;" xml:space="preserve">
<path style="fill:#DDDDDD;" d="M194.918,158.72H9.882c-3.572,0-6.468-2.896-6.468-6.468V28.655c0-3.572,2.896-6.468,6.468-6.468
	h185.037c3.572,0,6.468,2.896,6.468,6.468v123.597C201.387,155.825,198.49,158.72,194.918,158.72z"/>
<path d="M194.918,162.133H9.882c-5.449,0-9.882-4.434-9.882-9.882V28.657c0-5.449,4.432-9.883,9.882-9.883h185.037
	c5.449,0,9.882,4.434,9.882,9.883v123.595C204.8,157.699,200.368,162.133,194.918,162.133z M9.882,25.6
	c-1.684,0-3.055,1.372-3.055,3.057v123.595c0,1.684,1.37,3.055,3.055,3.055h185.037c1.684,0,3.055-1.37,3.055-3.055V28.657
	c0-1.684-1.37-3.057-3.055-3.057L9.882,25.6L9.882,25.6z"/>
<rect x="13.653" y="32.427" style="fill:#EE5281;" width="177.493" height="116.053"/>
<path d="M191.147,151.893H13.653c-1.884,0-3.413-1.529-3.413-3.413V32.427c0-1.884,1.529-3.413,3.413-3.413h177.493
	c1.884,0,3.413,1.529,3.413,3.413V148.48C194.56,150.364,193.031,151.893,191.147,151.893z M17.067,145.067h170.667V35.84H17.067
	V145.067z"/>
<path id="SVGCleanerId_0" d="M54.613,93.867c-1.884,0-3.413-1.529-3.413-3.413v-10.24c0-1.884,1.529-3.413,3.413-3.413
	s3.413,1.529,3.413,3.413v10.24C58.027,92.337,56.497,93.867,54.613,93.867z"/>
<path id="SVGCleanerId_1" d="M54.613,138.24c-1.884,0-3.413-1.529-3.413-3.413v-10.24c0-1.884,1.529-3.413,3.413-3.413
	s3.413,1.529,3.413,3.413v10.24C58.027,136.711,56.497,138.24,54.613,138.24z"/>
<g>
	<path id="SVGCleanerId_0_1_" d="M54.613,93.867c-1.884,0-3.413-1.529-3.413-3.413v-10.24c0-1.884,1.529-3.413,3.413-3.413
		s3.413,1.529,3.413,3.413v10.24C58.027,92.337,56.497,93.867,54.613,93.867z"/>
</g>
<g>
	<path id="SVGCleanerId_1_1_" d="M54.613,138.24c-1.884,0-3.413-1.529-3.413-3.413v-10.24c0-1.884,1.529-3.413,3.413-3.413
		s3.413,1.529,3.413,3.413v10.24C58.027,136.711,56.497,138.24,54.613,138.24z"/>
</g>
<path id="SVGCleanerId_2" d="M37.547,110.933h-10.24c-1.884,0-3.413-1.529-3.413-3.413c0-1.884,1.529-3.413,3.413-3.413h10.24
	c1.884,0,3.413,1.529,3.413,3.413C40.96,109.404,39.431,110.933,37.547,110.933z"/>
<path id="SVGCleanerId_3" d="M81.92,110.933H71.68c-1.884,0-3.413-1.529-3.413-3.413c0-1.884,1.529-3.413,3.413-3.413h10.24
	c1.884,0,3.413,1.529,3.413,3.413C85.333,109.404,83.804,110.933,81.92,110.933z"/>
<g>
	<path id="SVGCleanerId_2_1_" d="M37.547,110.933h-10.24c-1.884,0-3.413-1.529-3.413-3.413c0-1.884,1.529-3.413,3.413-3.413h10.24
		c1.884,0,3.413,1.529,3.413,3.413C40.96,109.404,39.431,110.933,37.547,110.933z"/>
</g>
<g>
	<path id="SVGCleanerId_3_1_" d="M81.92,110.933H71.68c-1.884,0-3.413-1.529-3.413-3.413c0-1.884,1.529-3.413,3.413-3.413h10.24
		c1.884,0,3.413,1.529,3.413,3.413C85.333,109.404,83.804,110.933,81.92,110.933z"/>
</g>
<path id="SVGCleanerId_4" d="M42.545,98.867c-0.874,0-1.748-0.333-2.415-1l-7.24-7.241c-1.333-1.333-1.333-3.495,0-4.826
	c1.333-1.333,3.494-1.333,4.828,0l7.24,7.241c1.333,1.333,1.333,3.495,0,4.826C44.291,98.533,43.418,98.867,42.545,98.867z"/>
<path id="SVGCleanerId_5" d="M73.921,130.243c-0.874,0-1.748-0.333-2.415-1l-7.24-7.241c-1.333-1.333-1.333-3.495,0-4.826
	c1.333-1.333,3.494-1.333,4.828,0l7.24,7.241c1.333,1.333,1.333,3.495,0,4.826C75.668,129.91,74.795,130.243,73.921,130.243z"/>
<g>
	<path id="SVGCleanerId_4_1_" d="M42.545,98.867c-0.874,0-1.748-0.333-2.415-1l-7.24-7.241c-1.333-1.333-1.333-3.495,0-4.826
		c1.333-1.333,3.494-1.333,4.828,0l7.24,7.241c1.333,1.333,1.333,3.495,0,4.826C44.291,98.533,43.418,98.867,42.545,98.867z"/>
</g>
<g>
	<path id="SVGCleanerId_5_1_" d="M73.921,130.243c-0.874,0-1.748-0.333-2.415-1l-7.24-7.241c-1.333-1.333-1.333-3.495,0-4.826
		c1.333-1.333,3.494-1.333,4.828,0l7.24,7.241c1.333,1.333,1.333,3.495,0,4.826C75.668,129.91,74.795,130.243,73.921,130.243z"/>
</g>
<path id="SVGCleanerId_6" d="M35.306,130.243c-0.874,0-1.746-0.333-2.413-1c-1.333-1.331-1.333-3.494,0-4.826l7.24-7.241
	c1.333-1.333,3.494-1.333,4.828,0c1.333,1.331,1.333,3.494,0,4.826l-7.24,7.241C37.052,129.91,36.178,130.243,35.306,130.243z"/>
<path id="SVGCleanerId_7" d="M66.681,98.867c-0.874,0-1.746-0.333-2.413-1c-1.333-1.331-1.333-3.494,0-4.826l7.24-7.241
	c1.333-1.333,3.494-1.333,4.828,0c1.333,1.331,1.333,3.494,0,4.826l-7.24,7.241C68.429,98.533,67.555,98.867,66.681,98.867z"/>
<g>
	<path id="SVGCleanerId_6_1_" d="M35.306,130.243c-0.874,0-1.746-0.333-2.413-1c-1.333-1.331-1.333-3.494,0-4.826l7.24-7.241
		c1.333-1.333,3.494-1.333,4.828,0c1.333,1.331,1.333,3.494,0,4.826l-7.24,7.241C37.052,129.91,36.178,130.243,35.306,130.243z"/>
</g>
<g>
	<path id="SVGCleanerId_7_1_" d="M66.681,98.867c-0.874,0-1.746-0.333-2.413-1c-1.333-1.331-1.333-3.494,0-4.826l7.24-7.241
		c1.333-1.333,3.494-1.333,4.828,0c1.333,1.331,1.333,3.494,0,4.826l-7.24,7.241C68.429,98.533,67.555,98.867,66.681,98.867z"/>
</g>
<rect x="92.16" y="158.72" style="fill:#595959;" width="20.48" height="23.893"/>
<path d="M112.64,186.027H92.16c-1.884,0-3.413-1.529-3.413-3.413V158.72c0-1.884,1.529-3.413,3.413-3.413h20.48
	c1.884,0,3.413,1.529,3.413,3.413v23.893C116.053,184.497,114.524,186.027,112.64,186.027z M95.573,179.2h13.653v-17.067H95.573
	V179.2z"/>
<path d="M136.533,186.027H68.267c-1.884,0-3.413-1.529-3.413-3.413c0-1.884,1.529-3.413,3.413-3.413h68.267
	c1.884,0,3.413,1.529,3.413,3.413C139.947,184.497,138.417,186.027,136.533,186.027z"/>
<path d="M81.84,57.631c0-1.37,0.241-2.58,0.717-3.63c0.48-1.053,1.116-1.927,1.913-2.63c0.763-0.671,1.63-1.176,2.603-1.529
	c0.969-0.35,1.951-0.524,2.941-0.524c0.986,0,1.966,0.174,2.937,0.524c0.973,0.353,1.857,0.86,2.654,1.529
	c0.763,0.703,1.386,1.577,1.864,2.63c0.476,1.05,0.717,2.26,0.717,3.63v1.72h-4.873v-1.72c0-1.176-0.326-2.046-0.98-2.603
	c-0.654-0.556-1.427-0.836-2.316-0.836c-0.893,0-1.667,0.28-2.319,0.836c-0.652,0.556-0.98,1.427-0.98,2.603V75.6
	c0,1.176,0.326,2.046,0.98,2.603c0.654,0.556,1.427,0.836,2.319,0.836c0.889,0,1.664-0.28,2.316-0.836
	c0.652-0.556,0.98-1.427,0.98-2.603v-6.403h-3.871v-4.302h8.743V75.6c0,1.434-0.241,2.661-0.717,3.676
	c-0.476,1.021-1.101,1.867-1.864,2.533c-0.797,0.703-1.679,1.227-2.654,1.577c-0.969,0.35-1.951,0.527-2.937,0.527
	c-0.99,0-1.97-0.177-2.941-0.527c-0.973-0.35-1.84-0.874-2.603-1.577c-0.797-0.667-1.434-1.514-1.913-2.533
	c-0.476-1.017-0.717-2.243-0.717-3.676V57.631z"/>
<path d="M111.42,83.627v-2.483h-0.097c-0.637,0.889-1.283,1.577-1.934,2.053c-0.654,0.476-1.57,0.717-2.749,0.717
	c-0.573,0-1.154-0.087-1.742-0.263c-0.59-0.174-1.154-0.5-1.696-0.98c-0.539-0.444-0.98-1.091-1.314-1.934
	c-0.335-0.843-0.503-1.937-0.503-3.273c0-1.37,0.113-2.574,0.336-3.61c0.224-1.033,0.637-1.903,1.241-2.603
	c0.577-0.671,1.357-1.171,2.343-1.507c0.986-0.333,2.246-0.5,3.773-0.5c0.16,0,0.336,0,0.527,0c0.193,0,0.367,0.017,0.527,0.046
	c0.16,0.034,0.35,0.05,0.573,0.05c0.224,0,0.461,0.014,0.717,0.046v-2.533c0-0.826-0.177-1.514-0.527-2.053
	c-0.35-0.543-0.986-0.814-1.91-0.814c-0.637,0-1.22,0.207-1.743,0.62c-0.527,0.416-0.87,1.021-1.031,1.816h-4.729
	c0.126-2.167,0.86-3.92,2.2-5.257c0.637-0.637,1.399-1.14,2.294-1.507c0.889-0.364,1.893-0.546,3.011-0.546
	c1.021,0,1.973,0.16,2.867,0.476c0.889,0.321,1.673,0.797,2.34,1.434c0.64,0.637,1.15,1.434,1.529,2.389
	c0.384,0.957,0.573,2.07,0.573,3.343v16.872H111.42z M111.42,73.211c-0.543-0.097-0.986-0.143-1.336-0.143
	c-1.053,0-1.954,0.247-2.7,0.741c-0.749,0.493-1.123,1.393-1.123,2.7c0,0.923,0.22,1.673,0.667,2.246
	c0.447,0.573,1.067,0.86,1.864,0.86c0.829,0,1.473-0.27,1.937-0.814c0.463-0.539,0.693-1.307,0.693-2.294v-3.296H111.42z"/>
<path d="M119.876,83.627V59.401h4.873v2.34h0.097c0.51-0.763,1.123-1.393,1.84-1.886s1.633-0.741,2.746-0.741
	c1.053,0,1.927,0.253,2.63,0.763c0.7,0.51,1.273,1.067,1.72,1.673c0.604-0.671,1.273-1.244,2.007-1.72
	c0.734-0.48,1.753-0.717,3.06-0.717c0.604,0,1.224,0.104,1.864,0.311c0.637,0.207,1.21,0.55,1.72,1.027
	c0.507,0.476,0.923,1.094,1.241,1.84c0.321,0.749,0.48,1.664,0.48,2.746v18.591h-4.873V66.854c0-0.889-0.21-1.594-0.623-2.103
	c-0.413-0.507-1.004-0.763-1.766-0.763c-0.927,0-1.563,0.287-1.913,0.86c-0.35,0.573-0.524,1.403-0.524,2.483v16.295h-4.876V66.854
	c0-0.889-0.207-1.594-0.62-2.103c-0.413-0.507-1.004-0.763-1.766-0.763c-0.927,0-1.563,0.287-1.913,0.86
	c-0.35,0.573-0.527,1.403-0.527,2.483v16.295H119.876z"/>
<path d="M162.263,73.354h-9.653v3.297c0,0.763,0.217,1.353,0.647,1.766c0.43,0.416,1.01,0.623,1.742,0.623
	c0.923,0,1.536-0.27,1.84-0.814c0.304-0.539,0.486-1.084,0.55-1.623h4.873c0,2.133-0.654,3.854-1.959,5.159
	c-0.637,0.671-1.399,1.193-2.294,1.577c-0.889,0.384-1.893,0.573-3.011,0.573c-1.529,0-2.826-0.317-3.893-0.957
	c-1.07-0.637-1.886-1.48-2.463-2.533c-0.35-0.637-0.587-1.367-0.717-2.196c-0.126-0.826-0.189-1.737-0.189-2.724v-7.98
	c0-0.986,0.063-1.896,0.189-2.724c0.13-0.829,0.367-1.563,0.717-2.2c0.577-1.05,1.393-1.893,2.463-2.533
	c1.067-0.637,2.364-0.954,3.893-0.954c1.116,0,2.127,0.189,3.033,0.573c0.91,0.381,1.679,0.906,2.319,1.577
	c1.273,1.434,1.91,3.234,1.91,5.4v6.692H162.263z M152.61,69.531h4.78v-2.773c0-0.923-0.217-1.616-0.647-2.077
	c-0.43-0.463-1.01-0.693-1.743-0.693s-1.314,0.23-1.742,0.693c-0.43,0.461-0.647,1.154-0.647,2.077v2.773H152.61z"/>
<path d="M97.99,101.321c0-1.37,0.241-2.58,0.717-3.63c0.48-1.053,1.116-1.927,1.913-2.63c0.763-0.671,1.63-1.176,2.603-1.529
	c0.969-0.35,1.951-0.524,2.941-0.524c0.986,0,1.966,0.174,2.937,0.524c0.973,0.353,1.857,0.86,2.654,1.529
	c0.763,0.703,1.386,1.577,1.864,2.63c0.476,1.05,0.717,2.26,0.717,3.63v17.97c0,1.434-0.241,2.661-0.717,3.676
	c-0.476,1.021-1.101,1.867-1.864,2.533c-0.797,0.703-1.679,1.227-2.654,1.577c-0.969,0.35-1.951,0.527-2.937,0.527
	c-0.99,0-1.97-0.178-2.941-0.527c-0.973-0.35-1.84-0.874-2.603-1.577c-0.797-0.667-1.434-1.514-1.913-2.533
	c-0.476-1.017-0.717-2.243-0.717-3.676V101.321z M102.863,119.291c0,1.176,0.326,2.046,0.98,2.603
	c0.654,0.556,1.427,0.836,2.319,0.836c0.889,0,1.664-0.28,2.316-0.836s0.98-1.427,0.98-2.603v-17.97c0-1.176-0.326-2.046-0.98-2.603
	c-0.654-0.556-1.427-0.836-2.316-0.836c-0.893,0-1.667,0.28-2.319,0.836c-0.652,0.556-0.98,1.427-0.98,2.603V119.291z"/>
<path d="M133.21,103.091l-6.31,24.226H122.6l-6.306-24.226h5.159l3.25,15.483h0.094l3.25-15.483H133.21z"/>
<path d="M148.977,117.045h-9.653v3.297c0,0.763,0.217,1.353,0.647,1.766c0.43,0.416,1.01,0.623,1.742,0.623
	c0.923,0,1.536-0.27,1.84-0.814c0.304-0.539,0.486-1.084,0.55-1.623h4.873c0,2.133-0.654,3.854-1.959,5.159
	c-0.637,0.671-1.399,1.193-2.294,1.577c-0.889,0.384-1.893,0.573-3.011,0.573c-1.529,0-2.826-0.317-3.893-0.957
	c-1.07-0.637-1.886-1.48-2.463-2.533c-0.35-0.637-0.587-1.367-0.717-2.196c-0.126-0.826-0.189-1.737-0.189-2.724v-7.98
	c0-0.986,0.063-1.896,0.189-2.724c0.13-0.829,0.367-1.563,0.717-2.2c0.577-1.05,1.393-1.893,2.463-2.533
	c1.067-0.637,2.364-0.954,3.893-0.954c1.116,0,2.127,0.189,3.033,0.573c0.91,0.381,1.679,0.906,2.319,1.577
	c1.273,1.434,1.91,3.234,1.91,5.4v6.692H148.977z M139.324,113.22h4.78v-2.773c0-0.923-0.217-1.616-0.647-2.077
	c-0.43-0.463-1.01-0.693-1.743-0.693s-1.314,0.23-1.742,0.693c-0.43,0.461-0.647,1.154-0.647,2.077v2.773H139.324z"/>
<path d="M152.561,127.317v-24.226h4.873v2.58c0.99-0.893,1.959-1.594,2.917-2.103c0.957-0.509,2.133-0.763,3.536-0.763v5.159
	c-0.48-0.189-0.973-0.287-1.483-0.287s-1.06,0.087-1.647,0.263c-0.59,0.174-1.123,0.469-1.603,0.884
	c-0.51,0.413-0.923,0.957-1.241,1.623c-0.321,0.671-0.48,1.5-0.48,2.487v14.384h-4.873V127.317z"/>
<g>
</g>
<g>
</g>
<g>
</g>
<g>
</g>
<g>
</g>
<g>
</g>
<g>
</g>
<g>
</g>
<g>
</g>
<g>
</g>
<g>
</g>
<g>
</g>
<g>
</g>
<g>
</g>
<g>
</g>
</svg>
