<svg id="Layer_1" enable-background="new 0 0 512.002 512.002" height="512" viewBox="0 0 512.002 512.002" width="512" xmlns="http://www.w3.org/2000/svg"><g><g clip-rule="evenodd" fill-rule="evenodd"><path d="m315.985 141.487c3.224-7.717 5.016-16.127 5.016-24.912 0-17.947-7.276-34.197-19.04-45.96-11.764-11.764-28.014-19.04-45.96-19.04s-34.197 7.276-45.96 19.04c-11.764 11.763-19.04 28.013-19.04 45.96 0 11.046 8.954 20 20 20s20-8.954 20-20c0-6.905 2.798-13.156 7.321-17.679s10.774-7.321 17.679-7.321 13.156 2.798 17.679 7.321 7.321 10.774 7.321 17.679c0 3.455-.675 6.692-1.89 9.6-1.271 3.044-3.2 5.848-5.621 8.269-11.511 11.511-20.157 20.993-26.361 30.319-7.485 11.249-11.128 21.777-11.128 33.655 0 11.046 8.954 20 20 20s20-8.954 20-20c0-3.506 1.443-7.167 4.409-11.624 4.245-6.38 11.415-14.123 21.361-24.069 5.969-5.971 10.843-13.166 14.214-21.238z" fill="#fff"/><path d="m256.001 218.418c11.046 0 20 8.954 20 20v.007c0 11.046-8.954 20-20 20s-20-8.954-20-20v-.007c0-11.046 8.954-20 20-20zm65-101.844c0 8.785-1.792 17.195-5.016 24.912-3.372 8.072-8.245 15.268-14.215 21.238-9.946 9.945-17.116 17.689-21.361 24.069-2.965 4.456-4.409 8.117-4.409 11.624 0 11.046-8.954 20-20 20s-20-8.954-20-20c0-11.878 3.643-22.406 11.128-33.655 6.204-9.325 14.85-18.808 26.361-30.319 2.421-2.421 4.35-5.226 5.621-8.269 1.215-2.908 1.89-6.145 1.89-9.6 0-6.905-2.798-13.156-7.321-17.679s-10.774-7.321-17.679-7.321c-6.906 0-13.156 2.798-17.679 7.321s-7.321 10.774-7.321 17.679c0 11.046-8.954 20-20 20s-20-8.954-20-20c0-17.947 7.276-34.197 19.04-45.96 11.764-11.764 28.014-19.04 45.96-19.04s34.197 7.276 45.96 19.04c11.765 11.764 19.041 28.013 19.041 45.96zm-65 183.426c80.082 0 145-64.918 145-145s-64.918-145-145-145-145 64.918-145 145 64.918 145 145 145z" fill="#ff764e"/><path d="m276.001 238.418c0-11.046-8.954-20-20-20s-20 8.954-20 20v.007c0 11.046 8.954 20 20 20s20-8.954 20-20z" fill="#fff"/><g><path d="m441.715 347.533c0-25.143-20.571-45.714-45.714-45.714s-45.714 20.571-45.714 45.714v22.857c0 11.686 4.444 22.384 11.725 30.489 8.385 9.333 20.532 15.225 33.989 15.225s25.604-5.893 33.989-15.225c7.281-8.104 11.725-18.803 11.725-30.489z" fill="#ffdcd5"/><path d="m429.989 400.879c-8.385 9.333-20.532 15.225-33.989 15.225s-25.604-5.893-33.987-15.227c-27.128 12.838-46.013 40.504-46.013 72.369v28.756h160v-28.756c.001-31.864-18.884-59.531-46.011-72.367z" fill="#60a4ff"/></g><g><path d="m161.715 347.533c0-25.143-20.571-45.714-45.714-45.714s-45.714 20.571-45.714 45.714v22.857c0 11.686 4.444 22.384 11.725 30.489 8.385 9.333 20.532 15.225 33.989 15.225s25.604-5.893 33.989-15.225c7.281-8.104 11.725-18.803 11.725-30.489z" fill="#ffdcd5"/><path d="m149.989 400.879c-8.385 9.333-20.532 15.225-33.989 15.225s-25.604-5.893-33.987-15.227c-27.128 12.838-46.013 40.504-46.013 72.369v28.756h160v-28.756c.001-31.864-18.884-59.531-46.011-72.367z" fill="#ffc144"/></g></g><g><path d="m164.606 397.577c4.519-8.048 7.109-17.318 7.109-27.186v-22.858c0-30.721-24.993-55.714-55.714-55.714s-55.714 24.993-55.714 55.714v22.858c0 9.868 2.59 19.139 7.11 27.187-25.758 16.522-41.395 44.702-41.395 75.669v28.755c0 5.523 4.477 10 10 10h160c5.523 0 10-4.477 10-10v-28.755c-.001-30.957-15.641-59.147-41.396-75.67zm-84.32-50.044c0-19.693 16.021-35.714 35.714-35.714s35.714 16.021 35.714 35.714v22.858c0 19.693-16.021 35.714-35.714 35.714s-35.715-16.021-35.715-35.714v-22.858zm105.715 144.469h-140v-18.755c0-24.889 13.013-47.473 34.293-60.13 9.677 8.1 22.13 12.988 35.707 12.988s26.031-4.888 35.707-12.988c21.278 12.658 34.293 35.25 34.293 60.13z"/><path d="m288.735 192.333c4.258-6.401 12.553-14.984 20.106-22.537 7.016-7.017 12.524-15.245 16.371-24.454 3.841-9.195 5.788-18.874 5.788-28.767 0-20.03-7.802-38.864-21.969-53.031s-33-21.968-53.031-21.968-38.865 7.802-53.032 21.968c-14.167 14.167-21.968 33-21.968 53.031 0 16.542 13.458 30 30 30s30-13.458 30-30c0-4.008 1.56-7.775 4.392-10.607 2.832-2.833 6.599-4.392 10.608-4.392 4.008 0 7.776 1.56 10.608 4.392 2.833 2.832 4.392 6.599 4.392 10.607 0 2.037-.376 3.969-1.118 5.746-.755 1.808-1.921 3.508-3.465 5.051-13.635 13.635-21.636 22.863-27.615 31.851-8.734 13.127-12.802 25.582-12.802 39.195 0 7.678 2.903 14.689 7.664 20.001-4.762 5.313-7.664 12.326-7.664 20.008 0 16.542 13.458 30 30 30s30-13.458 30-30v-.008c0-7.678-2.903-14.689-7.664-20 4.761-5.312 7.664-12.323 7.664-20 .001-.903.475-2.69 2.735-6.086zm-33.281-22.032c5.197-7.811 12.471-16.151 25.106-28.787 3.396-3.396 6.013-7.261 7.777-11.485 1.768-4.23 2.664-8.757 2.664-13.455 0-9.351-3.64-18.14-10.25-24.75-6.61-6.609-15.4-10.25-24.75-10.25-9.351 0-18.141 3.64-24.75 10.25s-10.25 15.399-10.25 24.75c0 5.514-4.486 10-10 10s-10-4.486-10-10c0-14.689 5.722-28.5 16.111-38.889s24.2-16.111 38.889-16.111c14.688 0 28.5 5.722 38.889 16.11 10.389 10.39 16.111 24.201 16.111 38.889 0 7.233-1.428 14.318-4.243 21.059-2.837 6.793-6.895 12.856-12.058 18.021-11.848 11.848-18.4 19.265-22.615 25.6-4.15 6.237-6.083 11.691-6.083 17.164 0 5.514-4.486 10-10 10s-10-4.486-10-10c-.001-9.619 2.915-18.29 9.452-28.116zm10.547 68.125c0 5.514-4.486 10-10 10s-10-4.486-10-10.008c0-5.514 4.486-10 10-10s10 4.486 10 10z"/><path d="m411.001 155c0-85.468-69.533-155-155-155-24.915 0-48.714 5.736-70.737 17.05-4.912 2.524-6.849 8.552-4.325 13.465 2.524 4.912 8.551 6.849 13.465 4.325 19.167-9.847 39.891-14.84 61.597-14.84 74.439 0 135 60.561 135 135s-60.561 135-135 135-135-60.561-135-135c0-21.708 4.994-42.436 14.843-61.604 2.524-4.913.588-10.941-4.324-13.465s-10.941-.588-13.465 4.324c-11.316 22.024-17.054 45.826-17.054 70.745 0 85.467 69.533 155 155 155s155-69.532 155-155z"/><path d="m444.606 397.577c4.519-8.048 7.109-17.318 7.109-27.186v-22.858c0-30.721-24.993-55.714-55.714-55.714s-55.714 24.993-55.714 55.714v22.858c0 9.868 2.59 19.139 7.11 27.187-25.758 16.522-41.395 44.702-41.395 75.669v28.755c0 5.523 4.477 10 10 10h160c5.523 0 10-4.477 10-10v-28.755c-.001-30.957-15.641-59.147-41.396-75.67zm-84.32-50.044c0-19.693 16.021-35.714 35.714-35.714s35.714 16.021 35.714 35.714v22.858c0 19.693-16.021 35.714-35.714 35.714s-35.715-16.021-35.715-35.714v-22.858zm105.715 144.469h-140v-18.755c0-24.889 13.013-47.473 34.293-60.13 9.677 8.1 22.13 12.988 35.707 12.988s26.031-4.888 35.707-12.988c21.278 12.658 34.293 35.25 34.293 60.13z"/><path d="m153.468 62.47c2.719 0 5.429-1.103 7.402-3.273l.005-.005c3.715-4.086 3.411-10.408-.675-14.123s-10.413-3.412-14.128.675c-3.715 4.086-3.414 10.411.673 14.126 1.915 1.741 4.322 2.6 6.723 2.6z"/></g></g></svg>